<?xml version="1.0" encoding="UTF-8"?>
<svg id="Capa_2" data-name="Capa 2" xmlns="http://www.w3.org/2000/svg" viewBox="0 0 226.64 164.67">
  <defs>
    <style>
      .cls-1 {
        fill: #fff;
      }
    </style>
  </defs>
  <g id="Capa_de_vector" data-name="Capa de vector">
    <path class="cls-1" d="M.26,163.82c-.44-.62-.27-1.34.12-1.93.08-.12.35-.64.16-.1-1.13,3.58,3.74,1.44,5.06.32,8.87-6.74,15.38-16.12,22.03-24.95-4.78-11.2-2.47-23.63-.61-35.23,4.29-26.35,16.78-50.47,31.7-72.33,3.61-5.29,7.68-10.25,11.92-15.05,4.41-4.79,8.93-9.75,14.71-12.88,3.99-2.3,9.95-2.65,12.78,1.59,3.58,5.88-.53,12.72-2.38,18.52-9.01,22.94-20.74,44.74-33.49,65.79-8.23,13.55-16.56,27.03-25.14,40.36-1.43,2.21-2.89,4.4-4.34,6.6-.14.22-.16.16-.04.48,1,2.46,2.44,4.78,4.29,6.69,16.5,15.99,32.3-18.9,41.54-29,6.03-7.13,13.07-15.21,22.88-16.39,2.27-.02,4.94-.75,6.94.56,1.48,1.09,1.76,3.36.62,4.79-1.7,2.05-4.73,1.25-7.03,2-4.6,1.08-9.49,2.88-12.57,6.61-3.21,4.08-6.32,8.77-6.9,14.04-.77,5.88,4.66,10.2,10.12,10.57,4.26.3,8.21-1.77,11.72-3.96,17.59-11.88,27.3-21.25,50.16-16.79,9.22,1.79,18.12,5.31,27.58,5.69,14.86.58,28.98-5.12,43.36-8.01.08-.02,1.18-.3,1.2-.27-7.75,3.84-15.79,7.78-24.01,10.65-7.48,2.19-15.33,3.27-23.12,2.78-16.17-1.23-31.48-9.86-47.84-3.97-13.03,4.59-22.1,17.33-35.96,19.81-9.08,1.28-19.55-5.17-19.41-15-6.82,9.26-13.28,20.18-24.25,24.92-9.11,3.96-19.11-2.25-23.05-10.6-5.58,7.83-11.33,15.99-19.37,21.52-2.37,1.42-6.86,4.51-9.36,2.18ZM89.16,5.79c-12.4,5.56-25.58,24.31-32.73,35.85-11.41,18.75-20.89,39.04-24.38,60.86-1.52,9.57-3.34,19.66-.54,29.15,14.89-22.03,29.38-44.41,42.08-67.78,2.88-5.55,33.87-64.09,15.58-58.08Z"/>
  </g>
</svg>