<?xml version="1.0" encoding="UTF-8"?>
<svg id="Capa_2" data-name="Capa 2" xmlns="http://www.w3.org/2000/svg" viewBox="0 0 532.52 163.93">
  <defs>
    <style>
      .cls-1 {
        fill: #fff;
      }
    </style>
  </defs>
  <g id="Capa_de_vector" data-name="Capa de vector">
    <g>
      <path class="cls-1" d="M56.59,138.26c-11.72-.52-19.32-9.48-18.33-21.1.53-8.35,2.43-16.59,4.94-24.57-11.96,9.54-25.76,18.41-41.32,19.96-.11,0-2.17.13-1.85-.5.1-.2.45-.12.63-.11,4.87-.95,9.27-3.83,13.71-6,10.95-5.7,21.59-12.17,30.84-20.42.6-.36.92-.92,1.12-1.58.92-2.21,1.85-4.42,2.86-6.59,6.68-13.78,12.87-27.84,20.81-40.96,6.26-10.61,14.7-19.75,24.03-27.75,4.19-3.41,8.54-7.39,14-8.48,4.77-1,8.91,3.2,7.99,7.94-5.31,15.84-18.02,27.82-28.21,40.64-10.77,13.37-23.4,25.03-36.09,36.52-.85.61-.86,1.84-1.32,2.73-3.13,8.63-5.37,17.67-6.13,26.82-.25,3.97-.07,8.25,2.2,11.67,3.27,4.71,9.96,6.83,15.3,4.64,12.62-5.49,25.16-23.61,32.84-35.06,2.02-3.25,3.87-6.61,5.59-10.03.63-1.23,1.27-2.66,2.52-3.39,3.76-1.89,6.22,1.92,4.87,5.31-1.52,7.32-10.38,22.17-.16,26.15,5.92,1.52,9.63-5.16,11.51-9.77,1.44-3.51,2.79-7.06,4.29-10.55.95-2.14,1.56-4.89,3.89-5.95,1.79-.76,3.88.15,4.62,1.91.83,2.63-.23,5.47-.08,8.17,1.12,20.13,17.1,14.15,26.84,3.51,2.04-1.7,3.06-4.09,4.59-6.2,2.86-4.07,6.79-7.12,10.93-9.81,7.65-5.62,18.22-9.18,23.54,1.31,1.09,2.03,1.48,4.3,2.06,6.49.89,2.52-.23,5.85-3.28,5.84-3.09.03-3.62-3.09-4.05-5.49-3.52-11.55-12.41-4.48-18.11.95-2.7,2.68-5.55,5.34-7.84,8.37-1.79,3.84-3.52,8.75-1.07,12.67,6.7,8.29,24.88-2.12,32.59-5.42,7.84-3.53,15.18-8.17,21.34-14.21,4.09-3.61,7.41-8.23,11.86-11.38,2.98-1.33,6.14,2.22,4.4,5.01-4.04,5.09-9.96,10.07-9.89,17.11.25,2.97,3.31,4.64,5.91,5.34,5.97,1.47,12.11-.85,17.51-3.29,12.29-5.43,20.23-17.22,32.45-22.73,5.69-2.87,12.44-2.87,18.41-.86,1.95.23,3.95.66,5.55,1.85,2.4,1.73,1.9,5.82-1.09,6.58-2.28.68-4.45-.92-6.54-1.61-4.54-.26-9.11,1.36-13.46,2.53-7.09,2.01-13,5.6-14.41,13.35-1.35,6.74,5.61,7.18,10.34,5.66,5.18-1.35,9.97-4.15,13.95-7.72,5.26-4.78,9.81-10.29,13.96-16.04,2.28-4.04,8.46-2.48,7.04,2.42-3.32,5.46-7.84,10.65-8.99,17.14-.65,7.78,9.11,5.54,13.38,3.13,4.77-2.29,8.98-5.65,12.73-9.36,3.39-3.39,6.34-7.18,9.42-10.85,1.6-2.46,5.42-4.38,7.56-1.48,1.91,2.78-.43,6.09-1.66,8.66-1.33,2.48-2.8,4.88-4.1,7.37-.12.18-.07.18.18,0,.54-.29,1.09-.59,1.62-.91,3.49-2.03,6.89-4.23,10-6.82,4.71-3.62,8.95-8.55,15.05-9.65,7.82-1.11,12.34,7.65,11.41,14.48.23,2.67-3.26,14.11-.77,14.87,3.29.3,6.47-1.48,9.21-3.12,4.51-2.85,8.31-6.76,10.98-11.39,2.65-4.53,5.4-9.17,9.65-12.41,6.24-4.9,14.56-7.37,22.43-5.94,2.59.56,5.81,1.31,6.91,3.98,6.73,3.8,1.49,26.46,10.15,31.79,12.34,6.73,27.87-2.4,37.74-10.04,9.71-7.45,17.76-16.73,25.26-26.35,5.86-7.13,12.35-13.73,19.16-19.95-12.83,21.52-28.12,42.65-49.34,56.54-10.87,7-27.06,12.68-38.34,3.67-6.13-5.53-6.21-14.35-6.99-21.98-.15-.48-.04-1.4-.21-1.83-.05-.02-.77,1.36-.84,1.48-2.7,5.06-5.4,10.35-10.37,13.56-7.01,5.13-21.96,8.6-24.16-3.09-5.78,5.94-16.48,14.7-25.17,10.72-6.68-4.41-2.54-13.34-2.12-19.73.28-2.87.36-7.7-3.13-8.54-3.31.33-5.88,3.02-8.45,4.9-4.18,3.29-8.47,6.47-13.02,9.24-3.92,2.11-7.65,5.41-12.18,5.91-2.9.07-4.92-2.95-4.04-5.66-6.04,4.91-13.02,9.49-20.83,10.75-7.26,1.22-14-3.33-14.16-10.97-5.95,5.55-13.46,9.56-21.6,10.48-8.29,1.21-15.62-4.09-14.54-12.93-7.6,5.13-15.96,10.04-25.29,11.06-8.62,1.36-20.27-3.88-19.05-14-8.2,6.91-18.08,11.19-27.77,15.54-11.91,5.88-32.68,9.49-33.65-9.16-12.04,9.67-27.37,10.06-31.52-7.28-2.74,6.68-6.22,14.32-13.78,16.46-4.28,1.29-8.87-.46-12.05-3.41-3.58-3.16-4.35-8.22-3.7-12.75.13-.49.05-.49-.24-.02-1.27,1.74-2.54,3.48-3.85,5.19-8.64,10.62-20.49,28.8-35.53,28.82ZM429.27,94.05c-6.74.55-12.95,6.39-17.23,11.27-10.48,14.45,8.93,10.17,14.07,2.56,3.16-4.15,5.14-9.09,7.62-13.64-1.4-.2-3.01-.27-4.47-.19ZM108.23,5.65c-2.95.74-5.42,2.71-7.86,4.44-4.91,3.68-9.36,7.91-13.64,12.29-14.51,15.14-22.26,35.06-31.29,53.64-.09.2-.52.78,0,.3,1.81-1.68,3.62-3.37,5.41-5.08,11.64-10.69,21.8-22.79,31.68-35.1,3.91-4.73,7.79-9.5,11.23-14.6,1.4-2,11.22-17.57,4.48-15.89Z"/>
      <g>
        <path class="cls-1" d="M304.27,147.72c1.02,0,1.96.11,2.82.32.85.21,1.54.5,2.06.87.52.36.78.76.78,1.19,0,.2-.08.4-.22.59-.15.19-.35.29-.61.29-.28,0-.5-.06-.66-.17-.16-.11-.31-.25-.46-.43-.15-.17-.37-.32-.67-.44-.28-.14-.68-.26-1.2-.35-.52-.09-1.1-.14-1.74-.14-1.2,0-2.27.28-3.23.85-.96.57-1.72,1.33-2.27,2.28s-.83,2.03-.83,3.22.27,2.31.8,3.28c.53.97,1.27,1.74,2.21,2.3.94.56,2.04.84,3.3.84.83,0,1.49-.07,1.97-.21.48-.14.88-.3,1.2-.49.43-.22.73-.44.91-.65.18-.21.42-.32.72-.32.28,0,.49.08.62.23.14.15.21.35.21.59,0,.32-.25.68-.75,1.08-.5.4-1.19.74-2.06,1.03-.88.29-1.89.44-3.04.44-1.58,0-2.97-.35-4.18-1.06-1.21-.71-2.14-1.68-2.82-2.9-.67-1.23-1.01-2.61-1.01-4.15s.34-2.83,1.02-4.04,1.63-2.19,2.85-2.93c1.22-.74,2.65-1.11,4.29-1.11Z"/>
        <path class="cls-1" d="M330.89,148.09c.28,0,.51.09.69.27.18.18.27.41.27.67v13.68c0,.24-.1.46-.29.64-.19.18-.42.27-.67.27-.3,0-.53-.09-.7-.27-.17-.18-.26-.4-.26-.64v-3.62l.54-.21c0,.55-.17,1.12-.5,1.72-.33.6-.78,1.15-1.36,1.64-.58.5-1.25.9-2.03,1.22s-1.62.47-2.51.47c-1.45,0-2.75-.35-3.89-1.06-1.14-.71-2.04-1.68-2.69-2.92-.65-1.24-.98-2.62-.98-4.17s.33-2.97.99-4.18c.66-1.21,1.56-2.15,2.69-2.84,1.13-.69,2.4-1.03,3.81-1.03.92,0,1.78.15,2.58.46.8.3,1.5.72,2.1,1.25.6.53,1.07,1.13,1.41,1.81.34.68.51,1.38.51,2.11l-.67-.46v-3.86c0-.26.08-.49.26-.67.17-.18.41-.27.7-.27ZM324.24,162.22c1.13,0,2.13-.28,3.01-.84.87-.56,1.56-1.33,2.06-2.31.5-.98.75-2.08.75-3.3s-.25-2.24-.75-3.21c-.5-.96-1.19-1.72-2.06-2.28-.88-.56-1.88-.84-3.01-.84s-2.11.27-2.99.81c-.89.54-1.58,1.28-2.08,2.23-.5.95-.75,2.05-.75,3.28s.25,2.32.75,3.3c.5.98,1.19,1.75,2.06,2.31.87.56,1.88.84,3.01.84Z"/>
        <path class="cls-1" d="M341.68,163.62c-.3,0-.54-.09-.72-.27-.18-.18-.27-.4-.27-.64v-13.62c0-.24.1-.46.29-.64.19-.18.43-.27.7-.27s.51.09.69.27c.18.18.27.4.27.64v4.56l-.48.09c.06-.71.25-1.41.56-2.11.31-.7.73-1.34,1.26-1.93.53-.59,1.17-1.06,1.9-1.43.74-.36,1.56-.55,2.48-.55.38,0,.76.08,1.12.23.36.15.54.4.54.75,0,.3-.09.54-.26.7-.17.16-.37.24-.61.24-.19,0-.4-.05-.62-.15-.22-.1-.52-.15-.88-.15-.6,0-1.2.17-1.79.5-.6.33-1.14.79-1.63,1.35s-.88,1.2-1.17,1.9-.43,1.4-.43,2.11v7.51c0,.24-.1.46-.29.64-.19.18-.42.27-.67.27Z"/>
        <path class="cls-1" d="M370.29,141.13c.28,0,.51.09.69.27.18.18.27.4.27.64v20.67c0,.24-.1.46-.29.64-.19.18-.42.27-.67.27-.3,0-.53-.09-.7-.27-.17-.18-.26-.4-.26-.64v-3.62l.54-.43c0,.59-.16,1.19-.48,1.81-.32.62-.77,1.19-1.36,1.7-.59.52-1.27.94-2.05,1.26-.78.32-1.62.49-2.51.49-1.43,0-2.72-.35-3.86-1.06-1.14-.71-2.04-1.67-2.7-2.89-.66-1.22-.99-2.6-.99-4.17s.33-2.92.99-4.15c.66-1.23,1.56-2.19,2.69-2.89,1.13-.7,2.4-1.05,3.81-1.05.9,0,1.74.15,2.53.46.79.3,1.49.72,2.1,1.25.61.53,1.09,1.13,1.44,1.81.35.68.53,1.38.53,2.11l-.67-.46v-10.85c0-.24.08-.46.26-.64.17-.18.41-.27.7-.27ZM363.63,162.22c1.15,0,2.16-.28,3.02-.84.86-.56,1.55-1.32,2.05-2.28.5-.96.75-2.06.75-3.3s-.25-2.31-.75-3.27c-.5-.96-1.19-1.72-2.06-2.27-.88-.55-1.88-.82-3.01-.82s-2.11.27-2.99.82c-.89.55-1.58,1.3-2.08,2.27-.5.96-.75,2.05-.75,3.27s.25,2.31.75,3.28c.5.97,1.19,1.74,2.08,2.3.88.56,1.88.84,2.99.84Z"/>
        <path class="cls-1" d="M395.34,155.84c0,1.54-.35,2.92-1.06,4.15-.7,1.23-1.66,2.19-2.88,2.89-1.22.7-2.6,1.05-4.16,1.05s-2.89-.35-4.11-1.05-2.2-1.66-2.91-2.89c-.72-1.23-1.07-2.61-1.07-4.15s.36-2.95,1.07-4.17c.71-1.22,1.69-2.18,2.91-2.89s2.6-1.06,4.11-1.06,2.94.35,4.16,1.06c1.22.71,2.18,1.67,2.88,2.89.7,1.22,1.06,2.6,1.06,4.17ZM393.42,155.84c0-1.24-.27-2.34-.8-3.3-.53-.96-1.26-1.72-2.19-2.27-.93-.55-1.99-.82-3.18-.82s-2.2.27-3.14.82c-.94.55-1.68,1.3-2.22,2.27-.54.96-.82,2.06-.82,3.3s.27,2.33.82,3.28c.54.95,1.28,1.71,2.22,2.26.94.56,1.98.84,3.14.84s2.26-.28,3.18-.84c.93-.56,1.66-1.31,2.19-2.26.53-.95.8-2.05.8-3.28Z"/>
        <path class="cls-1" d="M413.52,161.92c.26,0,.47.09.66.26.18.17.27.37.27.59,0,.24-.09.45-.27.61-.18.16-.4.24-.66.24h-10.4c-.3,0-.53-.1-.69-.3-.16-.2-.24-.4-.24-.58,0-.12.02-.24.06-.35.04-.11.11-.23.19-.35l9.73-12.74.1.3h-8.35c-.26,0-.48-.09-.66-.26-.18-.17-.27-.38-.27-.62,0-.22.09-.42.27-.59.18-.17.4-.26.66-.26h9.79c.26,0,.47.09.66.27.18.18.27.41.27.67,0,.1-.02.2-.06.3-.04.1-.11.21-.19.33l-9.63,12.62-.38-.15h9.15Z"/>
        <path class="cls-1" d="M437.68,155.84c0,1.54-.35,2.92-1.06,4.15-.7,1.23-1.66,2.19-2.88,2.89-1.22.7-2.6,1.05-4.16,1.05s-2.89-.35-4.11-1.05-2.2-1.66-2.91-2.89c-.72-1.23-1.07-2.61-1.07-4.15s.36-2.95,1.07-4.17c.71-1.22,1.69-2.18,2.91-2.89s2.6-1.06,4.11-1.06,2.94.35,4.16,1.06c1.22.71,2.18,1.67,2.88,2.89.7,1.22,1.06,2.6,1.06,4.17ZM435.76,155.84c0-1.24-.27-2.34-.8-3.3-.53-.96-1.26-1.72-2.19-2.27-.93-.55-1.99-.82-3.18-.82s-2.2.27-3.14.82c-.94.55-1.68,1.3-2.22,2.27-.54.96-.82,2.06-.82,3.3s.27,2.33.82,3.28c.54.95,1.28,1.71,2.22,2.26.94.56,1.98.84,3.14.84s2.26-.28,3.18-.84c.93-.56,1.66-1.31,2.19-2.26.53-.95.8-2.05.8-3.28Z"/>
      </g>
    </g>
  </g>
</svg>