<?xml version="1.0" encoding="UTF-8"?>
<svg id="Capa_2" data-name="Capa 2" xmlns="http://www.w3.org/2000/svg" viewBox="0 0 1913.25 130.23">
  <g id="Capa_1-2" data-name="Capa 1">
    <path d="M1911.85,108.13c-.19-.04-.46-.06-.52-.05-25.53,5.26-46.44,8.73-62.42,8.31-19.42-.51-36.96-12.94-55.53-26.11-21.14-14.99-42.97-30.47-69.79-29.9-29.56.65-56.32,8.95-79.93,16.27-16.3,5.06-31.7,9.83-45.4,11.18-14.1,1.39-28.2,8.03-43.13,15.06-20.16,9.49-43.01,20.26-69.56,18.98-27.29-1.3-59.19-31.23-84.82-55.28-17.82-16.72-31.9-29.92-40.47-30.37-9.2-.48-21.96-7.82-35.48-15.59-16.84-9.68-35.93-20.65-52.25-20.65s-36.25,11.81-54.93,23.23c-13.61,8.32-26.47,16.18-37.06,18.5-9.22,2.02-20.82,7.2-33.1,12.69-21.53,9.62-45.94,20.53-67,19.14-20.99-1.38-35.54-10.28-48.37-18.14-7.6-4.65-14.77-9.04-22.51-11.49-6.26-1.97-10.65-4.64-15.29-7.46-10.74-6.52-21.84-13.27-57.32-12.11-26.7.88-55.54,12.05-83.43,22.85-25.03,9.7-50.91,19.72-74.86,22.09-21.83,2.15-47.37,11.47-74.42,21.33-35.54,12.96-75.82,27.65-115.45,28.59-35.28.84-64.58-10.08-92.93-20.64-27.66-10.31-56.27-20.96-90.64-20.96C336.34,77.64,3.36,128.72,0,129.24l.15.99c3.35-.52,336.27-51.59,405.07-51.59,34.19,0,62.71,10.63,90.29,20.9,28.44,10.6,57.86,21.56,93.31,20.71,39.79-.95,80.16-15.67,115.77-28.66,26.99-9.84,52.48-19.14,74.18-21.28,24.09-2.38,50.04-12.43,75.13-22.15,27.81-10.77,56.57-21.92,83.1-22.79,35.18-1.16,46.15,5.51,56.77,11.96,4.7,2.85,9.13,5.55,15.51,7.56,7.63,2.41,14.75,6.77,22.29,11.38,12.93,7.92,27.59,16.89,48.83,18.29,21.31,1.4,45.83-9.56,67.47-19.23,12.23-5.46,23.78-10.63,32.9-12.62,10.75-2.36,23.68-10.26,37.37-18.63,18.56-11.35,37.76-23.09,54.41-23.09s35.02,10.9,51.76,20.52c13.62,7.83,26.49,15.22,35.92,15.72,8.21.43,22.87,14.18,39.84,30.1,25.75,24.16,57.8,54.22,85.46,55.54,26.8,1.29,49.77-9.53,70.04-19.07,14.85-6.99,28.88-13.59,42.8-14.97,13.8-1.36,29.25-6.15,45.6-11.22,23.55-7.3,50.24-15.58,79.66-16.23,26.42-.6,48.18,14.82,69.19,29.71,18.69,13.25,36.35,25.77,56.08,26.29,16.04.42,38.95-3.57,64.37-8.8-.57-.31-.73-.31-1.39-.46Z"/>
  </g>
</svg>