<?xml version="1.0" encoding="UTF-8"?>
<svg id="Capa_2" data-name="Capa 2" xmlns="http://www.w3.org/2000/svg" viewBox="0 0 2009.32 130.23">
  <path d="M1704.74,63.7c-49.23,11.54-163.14,50.01-204.91,57.76-5.41,1-11.23.89-13.83.41-28.73-5.23-124.62-76.53-181.97-108.66-16.8-9.41-22.3-12.25-31-12.84-2.79-.19-5.76.13-8.15.7-36.88,8.88-145.42,66.16-178.52,72.44-2.11.4-4.04.16-5.47.02-22.9-2.24-108.01-50.36-143.49-49.2-26.7.88-55.54,12.05-83.43,22.85-25.03,9.7-225.1,71.07-264.73,72.01-35.28.84-64.58-10.08-92.93-20.64-27.66-10.31-56.27-20.96-90.64-20.96-68.9.04-401.88,51.12-405.24,51.64l.15.99c3.35-.52,336.27-51.59,405.07-51.59,34.19,0,62.71,10.63,90.29,20.9,28.44,10.6,57.86,21.56,93.31,20.71,39.79-.95,239.99-62.37,265.08-72.09,27.81-10.77,56.57-21.92,83.1-22.79,35.18-1.16,121.32,47,143.4,49.19,2.58.26,3.91.35,5.53.01,36.04-7.53,141.38-62.78,178.95-72.27,3.62-.91,5.95-.72,9.23-.64,20.18.45,178.08,117.6,211.42,121.21,4.2.46,8.67.57,14.29-.49,42.26-7.91,155.91-46.24,204.89-57.74.35-.17.26-1.06-.41-.95Z"/>
</svg>