<?xml version="1.0" encoding="UTF-8"?>
<svg id="Capa_2" data-name="Capa 2" xmlns="http://www.w3.org/2000/svg" viewBox="0 0 2362.65 130.23">
  <g id="Capa_1-2" data-name="Capa 1">
    <path d="M.15,130.23l-.15-.99c3.36-.52,336.34-51.6,405.22-51.6,34.37,0,62.97,10.66,90.64,20.96,28.35,10.56,57.66,21.49,92.93,20.64,39.63-.95,79.91-15.64,115.45-28.59,27.05-9.86,52.6-19.18,74.42-21.33,23.96-2.36,49.84-12.39,74.86-22.09,27.89-10.8,56.72-21.98,83.43-22.85,35.48-1.16,46.58,5.58,57.32,12.11,4.64,2.82,9.03,5.49,15.29,7.46,7.75,2.44,14.92,6.83,22.51,11.49,12.83,7.86,27.38,16.76,48.37,18.14,21.06,1.39,45.47-9.52,67-19.14,12.28-5.49,23.88-10.67,33.1-12.69,10.59-2.32,23.45-10.18,37.06-18.5,18.68-11.42,38-23.23,54.93-23.23s35.41,10.97,52.25,20.65c13.52,7.77,26.28,15.1,35.48,15.59,8.58.45,22.65,13.66,40.47,30.37,25.63,24.05,57.53,53.97,84.82,55.28,26.55,1.28,49.4-9.49,69.56-18.98,14.93-7.03,29.03-13.67,43.13-15.06,13.7-1.35,29.1-6.13,45.4-11.18,23.61-7.32,50.37-15.62,79.93-16.27,26.82-.58,48.65,14.91,69.79,29.9,18.57,13.16,36.1,25.59,55.53,26.11,20.88.55,53.81-6.5,88.63-13.96,33.45-7.17,68.04-14.59,90.95-14.59s36.28,5.61,50.82,11.55c15.07,6.15,32.14,13.12,61.97,14.8,57.77,3.25,219.66-9.75,221.29-9.88l.08,1c-1.63.13-163.59,13.15-221.42,9.88-30-1.69-47.15-8.7-62.29-14.88-14.45-5.9-28.11-11.48-50.45-11.48s-57.34,7.4-90.74,14.56c-34.88,7.48-67.8,14.53-88.87,13.99-19.73-.52-37.39-13.04-56.08-26.29-21.01-14.89-42.78-30.31-69.19-29.71-29.42.64-56.11,8.92-79.66,16.23-16.35,5.07-31.8,9.86-45.6,11.22-13.93,1.37-27.96,7.98-42.8,14.97-20.27,9.54-43.23,20.37-70.04,19.07-27.66-1.32-59.7-31.39-85.46-55.54-16.97-15.92-31.63-29.67-39.84-30.1-9.44-.5-22.3-7.89-35.92-15.72-16.73-9.62-35.7-20.52-51.76-20.52s-35.84,11.74-54.41,23.09c-13.69,8.37-26.62,16.27-37.37,18.63-9.12,2-20.67,7.16-32.9,12.62-21.64,9.67-46.16,20.63-67.47,19.23-21.24-1.4-35.89-10.37-48.83-18.29-7.54-4.62-14.67-8.98-22.29-11.38-6.37-2.01-10.81-4.71-15.51-7.56-10.62-6.45-21.59-13.12-56.77-11.96-26.53.87-55.29,12.01-83.1,22.79-25.09,9.72-51.03,19.77-75.13,22.15-21.7,2.14-47.19,11.44-74.18,21.28-35.61,12.99-75.98,27.71-115.77,28.66-35.45.86-64.86-10.11-93.31-20.71-27.58-10.28-56.1-20.9-90.29-20.9C336.42,78.64,3.51,129.71.15,130.23Z"/>
  </g>
</svg>