<?xml version="1.0" encoding="UTF-8"?>
<svg id="Capa_2" data-name="Capa 2" xmlns="http://www.w3.org/2000/svg" viewBox="0 0 2362.76 131.17">
  <defs>
    <style>
      .cls-1 {
        fill: none;
        stroke: #000;
        stroke-miterlimit: 10;
        stroke-width: 1.95px;
      }
    </style>
  </defs>
  <g id="Capa_1-2" data-name="Capa 1">
    <path class="cls-1" d="M.15,130.21s335.51-51.59,405.14-51.59,113.95,43.27,183.58,41.61,139.27-44.94,189.91-49.93,107.62-43.27,158.26-44.94,51.56,12.96,72.44,19.54,37.59,27.45,71,29.65,75.18-26.35,100.24-31.84c25.06-5.49,62.65-41.73,91.88-41.73s66.82,35.14,87.71,36.24,79.35,83.45,125.3,85.65,79.35-30.75,112.77-34.04,75.18-26.35,125.3-27.45,83.53,54.9,125.3,56,133.65-28.55,179.59-28.55,54.29,23.06,112.77,26.35,221.36-9.88,221.36-9.88"/>
  </g>
</svg>