<?xml version="1.0" encoding="UTF-8"?>
<svg id="Capa_2" data-name="Capa 2" xmlns="http://www.w3.org/2000/svg" viewBox="0 0 1795.45 122.01">
  <g id="Capa_1-2" data-name="Capa 1">
    <path d="M.5,122.01c-.23,0-.44-.17-.49-.4-.05-.27.12-.53.39-.59,3.52-.69,352.66-68.86,397.28-64.12,23.59,2.5,35.92,9,54.59,18.85,8.92,4.71,19.04,10.04,32.6,16.18,2.61,1.18,5.12,2.34,7.54,3.46,28.85,13.33,46.26,21.38,102.29,6.88,71.14-18.4,130.17-35,221.42-65.42,7.33-2.44,17.18-6.25,28.6-10.66C875.54,14.3,913.87-.53,932.14.01c21.48.62,46.89,12.21,76.31,25.62,19.98,9.11,40.64,18.52,62.55,25.64,15.39,5,40.09,14.75,66.23,25.08,50.38,19.9,107.49,42.41,124.03,41.67,21.15-1,36.28-5.02,59.19-11.1,8.56-2.27,18.27-4.85,29.73-7.65,24.94-6.08,43.21-12.17,56.55-16.62,13.07-4.36,21.71-7.24,28.29-7.46,9.6-.31,25.53,5.31,42.39,11.29,16.82,5.96,34.22,12.12,45.27,12.12,15.99,0,70.98-22.12,93.88-31.62,32.9-13.66,66.92-27.79,81.98-28.89,8.39-.6,27.68,10.81,50.01,24.05,14.49,8.58,30.92,18.32,46.63,26.1.25.12.35.42.23.67-.12.25-.42.35-.67.23-15.75-7.8-32.19-17.54-46.69-26.13-22.19-13.15-41.35-24.49-49.43-23.91-14.9,1.09-48.84,15.18-81.67,28.81-22.95,9.53-78.09,31.7-94.26,31.7-11.22,0-28.7-6.19-45.6-12.17-16.78-5.94-32.64-11.58-42.03-11.23-6.43.22-15.01,3.08-28,7.41-13.36,4.45-31.65,10.55-56.63,16.64-11.45,2.79-21.15,5.37-29.71,7.64-22.96,6.1-38.14,10.13-59.39,11.13-16.72.8-73.97-21.8-124.45-41.73-26.13-10.32-50.81-20.07-66.17-25.06-21.97-7.14-42.65-16.57-62.66-25.68-29.32-13.37-54.65-24.91-75.92-25.53-18.06-.53-56.3,14.25-87.04,26.12-11.42,4.41-21.29,8.22-28.64,10.67-91.28,30.42-150.33,47.03-221.49,65.43-56.37,14.58-73.91,6.48-102.96-6.95-2.42-1.12-4.92-2.27-7.53-3.46-13.59-6.16-23.72-11.5-32.65-16.21-18.56-9.79-30.83-16.25-54.23-18.74C353.12,53.19,4.12,121.31.6,122c-.03,0-.06,0-.1,0Z"/>
  </g>
</svg>