<?xml version="1.0" encoding="UTF-8"?>
<svg id="Capa_2" data-name="Capa 2" xmlns="http://www.w3.org/2000/svg" viewBox="0 0 1699.07 142.55">
  <g id="Capa_1-2" data-name="Capa 1">
    <path d="M.5,142.55c-.23,0-.44-.17-.49-.4-.05-.27.12-.53.39-.59,3.52-.69,352.69-68.86,397.28-64.12,23.59,2.5,35.92,9,54.59,18.85,8.92,4.71,19.04,10.04,32.6,16.18,2.61,1.18,5.12,2.34,7.54,3.46,28.85,13.33,46.26,21.38,102.29,6.88,71.14-18.4,130.17-35,221.42-65.42,7.33-2.44,17.18-6.25,28.6-10.66,30.82-11.9,69.21-26.73,87.43-26.18,18.98.55,44.45,12.64,71.43,25.45,23.55,11.18,47.91,22.74,67.35,25.79,12.02,1.51,44.17-10.86,70.25-22.94,23.03-10.66,41.81-19.9,56.91-27.33,20.25-9.97,34.88-17.17,46.19-21.13,13.23-4.63,71.27,31.75,127.39,66.94,28.08,17.61,54.61,34.24,72.43,43.66,40.88,21.6,108.39-2.03,186.56-29.39,21.83-7.64,44.4-15.54,67.76-22.97.26-.08.54.06.63.33.08.26-.06.54-.33.63-23.35,7.43-45.92,15.33-67.74,22.96-56.9,19.91-108.18,37.86-147.8,37.86-14.96,0-28.25-2.56-39.56-8.53-17.86-9.44-44.4-26.08-72.5-43.7-53.31-33.43-113.73-71.32-126.53-66.85-11.25,3.94-25.86,11.13-46.08,21.08-15.1,7.43-33.89,16.68-56.93,27.34-26.21,12.13-58.58,24.56-70.81,23.02-19.6-3.07-44.03-14.67-67.64-25.88-26.88-12.76-52.26-24.81-71.03-25.35-18.06-.5-56.3,14.25-87.04,26.12-11.42,4.41-21.29,8.22-28.64,10.67-91.28,30.42-150.33,47.03-221.49,65.43-56.37,14.58-73.91,6.48-102.96-6.95-2.42-1.12-4.92-2.27-7.53-3.46-13.59-6.16-23.72-11.5-32.65-16.21-18.56-9.79-30.83-16.25-54.23-18.74C353.13,73.71,4.12,141.85.6,142.54c-.03,0-.06,0-.1,0Z"/>
  </g>
</svg>