<?xml version="1.0" encoding="UTF-8"?>
<svg id="Capa_2" data-name="Capa 2" xmlns="http://www.w3.org/2000/svg" viewBox="0 0 1796.73 140.42">
  <g id="Capa_1-2" data-name="Capa 1">
    <path d="M.5,140.42c-.23,0-.43-.16-.49-.38-.06-.27.1-.54.37-.6,1.75-.41,175.58-41.52,250.4-56.66,65.15-13.18,125.84-24.61,152.61-19.74,26.52,4.82,37.63,9.7,67.68,26.53,34.35,19.24,58.25,30.15,67.28,30.72,16.99,1.08,35.13-5.61,56.13-13.36l4.65-1.71c51.09-18.75,120.09-40.26,161.32-53.12,14.41-4.49,24.82-7.74,29.8-9.41,8.84-2.97,18.16-6.15,27.63-9.38C865.3,17.16,914.32.44,929.94.05c24.89-.63,37.84,5.36,66.2,18.49,4.83,2.24,10.3,4.77,16.31,7.49,12.52,5.67,44.24,18.6,77.81,32.3,39.76,16.21,80.87,32.98,99.12,41.3,42.14,19.21,67.66,25.71,107.48,13.46,48.79-15.02,75.88-25.02,90.44-30.39,1.9-.7,3.59-1.33,5.09-1.87,20.53-7.49,37.28-11.97,44.79-11.88,6.95.05,16.9,2.96,32.26,9.45,26.26,11.09,42.51,15.82,46.94,15.6,8.24-.41,38.8-9.18,137.62-48.59,2.02-.81,3.41-1.36,4.05-1.61,27.95-10.94,31.09-11.79,41.94-11.37,11.99.46,93.06,51.93,96.51,54.12.23.15.3.46.15.69-.15.23-.46.3-.69.15-.84-.54-84.29-53.52-96.01-53.97-10.65-.41-13.76.43-41.53,11.3-.64.25-2.03.8-4.05,1.61-78.32,31.24-126.02,48.07-137.94,48.66-5.54.31-24.16-5.87-47.38-15.68-15.24-6.43-25.07-9.32-31.88-9.37h-.12c-7.36,0-24.31,4.52-44.33,11.82-1.5.55-3.19,1.17-5.09,1.87-14.57,5.38-41.68,15.38-90.5,30.41-40.14,12.36-65.81,5.82-108.19-13.5-18.23-8.31-59.33-25.08-99.08-41.29-33.58-13.7-65.31-26.63-77.85-32.31-6.01-2.72-11.48-5.26-16.31-7.49-28.22-13.07-41.11-19.03-65.76-18.4-15.46.4-66.62,17.83-111.76,33.22-9.47,3.23-18.79,6.4-27.63,9.38-4.99,1.68-15.41,4.93-29.82,9.42-41.22,12.85-110.21,34.36-161.27,53.1l-4.64,1.71c-21.11,7.79-39.33,14.5-56.54,13.42-12.38-.79-47.73-19.67-67.7-30.85-29.94-16.77-40.99-21.63-67.37-26.42-26.58-4.84-89.78,7.1-152.23,19.74C176.18,98.89,2.36,139.99.62,140.41c-.04,0-.08.01-.12.01Z"/>
  </g>
</svg>